<?xml version="1.0" encoding="UTF-8" standalone="no"?>
<!DOCTYPE svg PUBLIC "-//W3C//DTD SVG 1.1//EN" "http://www.w3.org/Graphics/SVG/1.1/DTD/svg11.dtd">
<svg width="100%" height="100%" viewBox="0 0 19 19" version="1.1" xmlns="http://www.w3.org/2000/svg" xmlns:xlink="http://www.w3.org/1999/xlink" xml:space="preserve" xmlns:serif="http://www.serif.com/" style="fill-rule:evenodd;clip-rule:evenodd;stroke-linejoin:round;stroke-miterlimit:2;">
    <path d="M9.5,18.35L8.231,17.03C3.725,12.36 0.75,9.28 0.75,5.5C0.75,2.42 2.868,0 5.563,0C7.085,0 8.546,0.81 9.5,2.09C10.454,0.81 11.915,0 13.438,0C16.133,0 18.25,2.42 18.25,5.5C18.25,9.28 15.275,12.36 10.769,17.04L9.5,18.35ZM9.504,15.054C7.508,12.986 5.842,11.249 4.661,9.6C3.669,8.213 3.038,6.935 3.038,5.5C3.038,3.778 4.056,2.288 5.563,2.288C6.384,2.288 7.079,2.827 7.665,3.457L9.5,5.493L11.335,3.457C11.89,2.797 12.616,2.288 13.438,2.288C14.944,2.288 15.962,3.778 15.962,5.5C15.962,6.936 15.331,8.213 14.338,9.602C13.159,11.25 11.495,12.987 9.504,15.054Z" style="fill:rgb(145,28,28);"/>
</svg>
